<?xml version="1.0" standalone="no"?>
<!DOCTYPE svg PUBLIC "-//W3C//DTD SVG 20010904//EN"
 "http://www.w3.org/TR/2001/REC-SVG-20010904/DTD/svg10.dtd">
<svg version="1.0" xmlns="http://www.w3.org/2000/svg"
 width="4rem" height="4rem" viewBox="0 0 263.000000 325.000000"
 preserveAspectRatio="xMidYMid meet">

<g transform="translate(0.000000,325.000000) scale(0.100000,-0.100000)"
fill="#9FA4FA" stroke="none">
<path d="M1605 3230 c-210 -27 -386 -113 -538 -264 -82 -80 -156 -187 -191
-276 -10 -25 -20 -51 -23 -57 -4 -10 21 -13 105 -13 l110 0 27 48 c191 331
585 453 930 288 168 -80 294 -224 361 -412 25 -70 28 -93 28 -199 -1 -179 -48
-314 -157 -446 -82 -99 -247 -207 -344 -225 l-33 -6 0 -108 c0 -124 -11 -116
108 -78 189 60 347 173 467 334 89 119 132 221 160 378 38 212 -14 451 -141
642 -186 280 -531 436 -869 394z"/>
<path d="M1635 2914 c-152 -23 -297 -106 -389 -223 -25 -33 -46 -62 -46 -65 0
-3 53 -6 118 -6 111 0 120 1 153 26 57 42 103 62 173 74 178 31 352 -61 428
-228 41 -89 45 -205 10 -294 -26 -65 -97 -149 -160 -189 l-44 -28 0 -98 c1
-115 -3 -113 108 -57 193 98 314 292 314 504 0 164 -52 292 -164 405 -81 82
-140 119 -237 151 -66 22 -205 36 -264 28z"/>
<path d="M1647 2590 c-107 -27 -184 -118 -194 -229 -10 -113 40 -204 141 -255
134 -69 288 -18 356 117 49 97 37 195 -34 281 -59 73 -174 109 -269 86z"/>
<path d="M345 2474 c-90 -19 -132 -41 -196 -104 -36 -36 -75 -87 -88 -114 -51
-111 -52 -121 -48 -1049 2 -766 5 -868 19 -915 39 -125 131 -228 241 -267 48
-18 91 -19 570 -23 327 -2 538 1 574 7 146 28 248 127 297 290 14 48 16 148
16 848 l0 793 -60 0 c-76 0 -171 31 -233 76 -122 89 -173 275 -122 442 l7 22
-478 -1 c-264 -1 -488 -3 -499 -5z m1053 -1800 c109 -45 162 -174 113 -279
-21 -46 -50 -74 -106 -104 -127 -67 -294 39 -295 187 -1 147 154 253 288 196z"/>
</g>
</svg>
