<?xml version="1.0" standalone="no"?>
<!DOCTYPE svg PUBLIC "-//W3C//DTD SVG 20010904//EN"
 "http://www.w3.org/TR/2001/REC-SVG-20010904/DTD/svg10.dtd">
<svg version="1.0" xmlns="http://www.w3.org/2000/svg"
 width="4rem" height="4rem" viewBox="0 0 512.000000 512.000000"
 preserveAspectRatio="xMidYMid meet">

<g transform="translate(0.000000,512.000000) scale(0.100000,-0.100000)"
fill="#9FA4FA" stroke="none">
<path d="M1425 4570 c-600 -279 -1100 -516 -1113 -525 -24 -17 -29 -56 -9 -73
15 -13 2244 -952 2258 -952 14 0 2219 929 2247 946 26 17 29 55 5 76 -10 9
-511 246 -1114 527 -932 434 -1103 511 -1140 511 -36 -1 -232 -89 -1134 -510z"/>
<path d="M16 3704 c-14 -14 -16 -149 -16 -1335 0 -1303 0 -1320 20 -1359 11
-22 31 -47 44 -56 39 -25 2268 -914 2293 -914 12 0 27 9 33 19 16 31 14 2652
-2 2673 -14 17 -2314 988 -2341 988 -8 0 -23 -7 -31 -16z"/>
<path d="M3897 3232 c-637 -269 -1163 -495 -1168 -503 -13 -21 -12 -2645 1
-2670 6 -10 21 -19 33 -19 25 0 2254 889 2293 914 13 9 33 34 44 56 20 39 20
56 20 1359 0 1186 -2 1321 -16 1335 -8 9 -23 16 -32 16 -9 0 -538 -220 -1175
-488z"/>
</g>
</svg>
