<?xml version="1.0" standalone="no"?>
<!DOCTYPE svg PUBLIC "-//W3C//DTD SVG 20010904//EN"
 "http://www.w3.org/TR/2001/REC-SVG-20010904/DTD/svg10.dtd">
<svg version="1.0" xmlns="http://www.w3.org/2000/svg"
 width="4.5rem" height="4.5rem" viewBox="0 0 256.000000 256.000000"
 preserveAspectRatio="xMidYMid meet">

<g transform="translate(0.000000,256.000000) scale(0.100000,-0.100000)"
fill="#9FA4FA" stroke="none">
<path d="M1075 2266 c-247 -47 -481 -166 -658 -335 -356 -340 -486 -848 -336
-1319 31 -95 110 -263 149 -312 18 -23 20 -24 35 -9 15 15 14 21 -13 75 -16
33 -41 96 -56 142 -131 417 -24 860 277 1149 131 125 276 208 442 253 115 31
314 38 426 16 168 -34 306 -105 425 -218 l72 -69 264 27 c144 15 265 29 266
30 7 5 -55 88 -120 161 -165 188 -387 322 -646 390 -83 22 -123 26 -277 29
-122 2 -203 -1 -250 -10z"/>
<path d="M1790 1433 c-583 -61 -618 -66 -676 -92 -122 -57 -185 -152 -192
-291 -5 -113 19 -180 91 -253 67 -68 132 -99 223 -105 107 -7 154 12 384 153
113 70 362 222 554 338 238 144 351 218 359 235 9 18 8 30 -4 50 -13 24 -21
27 -69 29 -30 0 -332 -28 -670 -64z"/>
</g>
</svg>
