<svg id="svg" version="1.1" xmlns="http://www.w3.org/2000/svg" xmlns:xlink="http://www.w3.org/1999/xlink" width="400" height="400" viewBox="0, 0, 400,400"><g id="svgg"><path id="path0" d="M124.567 111.300 C 124.722 112.675,125.021 116.950,125.232 120.800 C 125.600 127.509,125.911 132.909,126.786 147.800 C 127.675 162.927,128.006 168.508,128.400 175.000 C 129.080 186.211,129.581 195.084,129.854 200.800 C 129.997 203.770,130.263 206.605,130.447 207.100 L 130.780 208.000 156.490 208.000 C 170.631 208.000,194.485 208.120,209.500 208.266 L 236.800 208.531 236.800 210.121 C 236.800 210.995,236.623 213.711,236.407 216.155 C 236.191 218.600,235.826 223.750,235.596 227.600 C 235.366 231.450,234.973 237.163,234.724 240.296 L 234.270 245.991 232.235 246.739 C 231.116 247.151,226.330 248.779,221.600 250.357 C 216.870 251.935,212.687 253.400,212.305 253.613 C 211.923 253.826,211.284 254.000,210.885 254.000 C 210.486 254.000,209.989 254.150,209.780 254.333 C 209.571 254.516,207.280 255.351,204.688 256.189 L 199.977 257.712 193.088 255.440 C 189.300 254.191,185.930 253.063,185.600 252.933 C 185.270 252.804,180.680 251.231,175.400 249.438 L 165.800 246.178 165.500 243.989 C 165.335 242.785,165.025 239.460,164.811 236.600 C 164.597 233.740,164.301 230.005,164.153 228.300 L 163.885 225.200 147.542 225.200 C 134.734 225.200,131.201 225.308,131.203 225.700 C 131.205 225.975,131.564 230.880,132.002 236.600 C 132.440 242.320,133.076 251.050,133.417 256.000 C 133.758 260.950,134.163 266.259,134.318 267.797 L 134.600 270.594 153.237 276.797 C 163.488 280.209,176.538 284.503,182.237 286.340 C 187.937 288.177,192.960 289.830,193.400 290.014 C 195.586 290.926,199.161 292.001,200.027 292.005 C 200.836 292.009,224.693 284.403,231.400 282.003 C 232.500 281.609,240.623 278.916,249.451 276.017 L 265.501 270.748 265.942 265.074 C 266.185 261.953,266.570 256.160,266.798 252.200 C 267.026 248.240,267.385 242.300,267.596 239.000 C 268.211 229.364,268.763 220.324,269.208 212.600 C 269.435 208.640,269.794 202.880,270.004 199.800 C 270.213 196.720,270.572 190.510,270.801 186.000 C 271.030 181.490,271.311 177.215,271.427 176.500 L 271.636 175.200 216.661 175.200 L 161.687 175.200 161.406 174.100 C 161.251 173.495,160.968 170.570,160.777 167.600 C 160.586 164.630,160.210 159.410,159.943 156.000 C 159.676 152.590,159.444 147.910,159.429 145.600 L 159.400 141.400 216.600 141.400 L 273.800 141.400 274.083 139.000 C 274.238 137.680,274.563 133.810,274.805 130.400 C 275.488 120.755,275.941 114.859,276.241 111.700 L 276.516 108.800 200.401 108.800 L 124.286 108.800 124.567 111.300 " stroke="none" fill="#f3f3f2" fill-rule="evenodd"></path><path id="path1" d="M57.600 42.967 C 57.600 43.938,57.757 44.793,57.950 44.867 C 58.268 44.988,58.697 51.023,58.941 58.800 C 58.993 60.450,59.170 62.250,59.336 62.800 C 59.633 63.791,59.904 67.504,60.267 75.592 C 60.370 77.898,60.619 79.982,60.819 80.222 C 61.018 80.463,61.204 82.492,61.232 84.732 C 61.259 86.971,61.443 88.903,61.641 89.025 C 61.838 89.147,62.000 91.217,62.000 93.624 C 62.000 96.080,62.165 98.000,62.375 98.000 C 62.581 98.000,62.850 99.935,62.972 102.300 C 63.094 104.665,63.297 108.580,63.422 111.000 C 63.548 113.420,63.819 115.571,64.025 115.780 C 64.231 115.989,64.400 118.014,64.400 120.280 C 64.400 122.760,64.559 124.400,64.800 124.400 C 65.042 124.400,65.200 126.125,65.200 128.776 C 65.200 131.263,65.373 133.260,65.600 133.400 C 65.827 133.540,66.000 135.537,66.000 138.024 C 66.000 140.675,66.158 142.400,66.400 142.400 C 66.642 142.400,66.800 144.133,66.800 146.800 C 66.800 149.467,66.958 151.200,67.200 151.200 C 67.442 151.200,67.600 152.925,67.600 155.576 C 67.600 158.063,67.773 160.060,68.000 160.200 C 68.225 160.339,68.400 162.263,68.400 164.600 C 68.400 166.937,68.575 168.861,68.800 169.000 C 69.025 169.139,69.200 171.071,69.200 173.424 C 69.200 175.941,69.359 177.600,69.600 177.600 C 69.842 177.600,70.000 179.325,70.000 181.976 C 70.000 184.463,70.173 186.460,70.400 186.600 C 70.627 186.740,70.800 188.737,70.800 191.224 C 70.800 193.875,70.958 195.600,71.200 195.600 C 71.442 195.600,71.600 197.333,71.600 200.000 C 71.600 202.667,71.758 204.400,72.000 204.400 C 72.242 204.400,72.400 206.125,72.400 208.776 C 72.400 211.263,72.573 213.260,72.800 213.400 C 73.025 213.539,73.200 215.463,73.200 217.800 C 73.200 220.137,73.375 222.061,73.600 222.200 C 73.825 222.339,74.000 224.260,74.000 226.590 C 74.000 228.880,74.172 230.793,74.384 230.867 C 74.596 230.940,74.796 233.025,74.828 235.500 C 74.861 237.975,75.041 240.000,75.228 240.000 C 75.415 240.000,75.481 241.337,75.376 242.972 C 75.270 244.607,75.380 246.722,75.621 247.672 C 75.862 248.622,76.091 251.020,76.131 253.000 C 76.170 254.980,76.341 256.815,76.511 257.077 C 76.680 257.339,76.860 259.364,76.909 261.577 C 76.959 263.789,77.105 265.600,77.233 265.600 C 77.525 265.600,77.535 265.735,77.597 270.587 C 77.624 272.780,77.815 274.777,78.020 275.025 C 78.226 275.272,78.412 277.258,78.434 279.437 C 78.456 281.617,78.625 283.584,78.809 283.808 C 78.994 284.032,79.247 286.147,79.372 288.508 C 79.498 290.869,79.701 294.735,79.825 297.100 C 79.949 299.465,80.219 301.571,80.425 301.780 C 80.631 301.989,80.800 304.014,80.800 306.280 C 80.800 308.760,80.959 310.400,81.200 310.400 C 81.442 310.400,81.600 312.107,81.600 314.720 C 81.600 317.096,81.771 319.211,81.980 319.420 C 82.190 319.630,82.415 321.151,82.480 322.800 L 82.600 325.800 84.100 325.924 C 84.925 325.992,85.600 326.178,85.600 326.337 C 85.600 326.496,86.095 326.666,86.700 326.716 C 87.305 326.766,87.860 326.985,87.933 327.203 C 88.007 327.422,88.772 327.600,89.633 327.600 C 90.495 327.600,91.200 327.780,91.200 328.000 C 91.200 328.220,91.740 328.400,92.400 328.400 C 93.060 328.400,93.600 328.580,93.600 328.800 C 93.600 329.020,94.230 329.200,95.000 329.200 C 95.770 329.200,96.400 329.380,96.400 329.600 C 96.400 329.820,96.929 330.000,97.576 330.000 C 98.223 330.000,98.864 330.180,99.000 330.400 C 99.136 330.620,99.867 330.800,100.624 330.800 C 101.381 330.800,102.000 330.980,102.000 331.200 C 102.000 331.420,102.529 331.600,103.176 331.600 C 103.823 331.600,104.464 331.780,104.600 332.000 C 104.736 332.220,105.467 332.400,106.224 332.400 C 106.981 332.400,107.600 332.580,107.600 332.800 C 107.600 333.020,108.129 333.200,108.776 333.200 C 109.423 333.200,110.064 333.380,110.200 333.600 C 110.336 333.820,110.977 334.000,111.624 334.000 C 112.271 334.000,112.800 334.180,112.800 334.400 C 112.800 334.620,113.419 334.800,114.176 334.800 C 114.933 334.800,115.664 334.980,115.800 335.200 C 115.936 335.420,116.577 335.600,117.224 335.600 C 117.871 335.600,118.400 335.760,118.400 335.956 C 118.400 336.152,119.030 336.422,119.800 336.556 C 120.570 336.690,121.830 336.910,122.600 337.044 C 123.370 337.178,124.000 337.448,124.000 337.644 C 124.000 337.840,124.529 338.000,125.176 338.000 C 125.823 338.000,126.464 338.180,126.600 338.400 C 126.736 338.620,127.366 338.800,128.000 338.800 C 128.634 338.800,129.264 338.980,129.400 339.200 C 129.536 339.420,130.166 339.600,130.800 339.600 C 131.434 339.600,132.064 339.780,132.200 340.000 C 132.336 340.220,132.941 340.400,133.544 340.400 C 134.147 340.400,134.819 340.579,135.038 340.798 C 135.256 341.016,136.552 341.312,137.918 341.454 C 139.283 341.597,140.400 341.868,140.400 342.057 C 140.400 342.246,140.940 342.400,141.600 342.400 C 142.260 342.400,142.800 342.580,142.800 342.800 C 142.800 343.020,143.430 343.200,144.200 343.200 C 144.970 343.200,145.600 343.380,145.600 343.600 C 145.600 343.820,146.129 344.000,146.776 344.000 C 147.423 344.000,148.064 344.180,148.200 344.400 C 148.336 344.620,149.067 344.800,149.824 344.800 C 150.581 344.800,151.200 344.980,151.200 345.200 C 151.200 345.420,151.729 345.600,152.376 345.600 C 153.023 345.600,153.664 345.780,153.800 346.000 C 153.936 346.220,154.667 346.400,155.424 346.400 C 156.181 346.400,156.800 346.580,156.800 346.800 C 156.800 347.020,157.340 347.200,158.000 347.200 C 158.660 347.200,159.200 347.380,159.200 347.600 C 159.200 347.820,159.830 348.000,160.600 348.000 C 161.370 348.000,162.000 348.180,162.000 348.400 C 162.000 348.620,162.630 348.800,163.400 348.800 C 164.170 348.800,164.800 348.980,164.800 349.200 C 164.800 349.420,165.430 349.600,166.200 349.600 C 166.970 349.600,167.600 349.780,167.600 350.000 C 167.600 350.220,168.129 350.400,168.776 350.400 C 169.423 350.400,170.064 350.580,170.200 350.800 C 170.336 351.020,171.067 351.200,171.824 351.200 C 172.581 351.200,173.200 351.380,173.200 351.600 C 173.200 351.820,173.729 352.000,174.376 352.000 C 175.023 352.000,175.664 352.180,175.800 352.400 C 175.936 352.620,176.566 352.800,177.200 352.800 C 177.834 352.800,178.464 352.980,178.600 353.200 C 178.736 353.420,179.366 353.600,180.000 353.600 C 180.634 353.600,181.264 353.780,181.400 354.000 C 181.536 354.220,182.177 354.400,182.824 354.400 C 183.471 354.400,184.000 354.560,184.000 354.756 C 184.000 354.952,184.585 355.209,185.300 355.328 C 187.403 355.676,188.945 356.038,189.800 356.385 C 190.240 356.563,191.410 356.930,192.400 357.201 C 193.390 357.471,194.740 357.897,195.400 358.146 C 196.942 358.729,203.586 358.736,204.840 358.155 C 206.397 357.435,208.592 356.800,209.528 356.800 C 210.008 356.800,210.400 356.640,210.400 356.444 C 210.400 356.248,211.030 355.978,211.800 355.844 C 212.570 355.710,213.830 355.490,214.600 355.356 C 215.370 355.222,216.000 354.952,216.000 354.756 C 216.000 354.560,216.529 354.400,217.176 354.400 C 217.823 354.400,218.464 354.220,218.600 354.000 C 218.736 353.780,219.366 353.600,220.000 353.600 C 220.634 353.600,221.264 353.420,221.400 353.200 C 221.536 352.980,222.166 352.800,222.800 352.800 C 223.434 352.800,224.064 352.620,224.200 352.400 C 224.336 352.180,224.977 352.000,225.624 352.000 C 226.271 352.000,226.800 351.820,226.800 351.600 C 226.800 351.380,227.419 351.200,228.176 351.200 C 228.933 351.200,229.664 351.020,229.800 350.800 C 229.936 350.580,230.577 350.400,231.224 350.400 C 231.871 350.400,232.400 350.220,232.400 350.000 C 232.400 349.780,233.019 349.600,233.776 349.600 C 234.533 349.600,235.264 349.420,235.400 349.200 C 235.536 348.980,236.177 348.800,236.824 348.800 C 237.471 348.800,238.000 348.620,238.000 348.400 C 238.000 348.180,238.630 348.000,239.400 348.000 C 240.170 348.000,240.800 347.820,240.800 347.600 C 240.800 347.380,241.340 347.200,242.000 347.200 C 242.660 347.200,243.200 347.020,243.200 346.800 C 243.200 346.580,243.920 346.400,244.800 346.400 C 245.680 346.400,246.400 346.220,246.400 346.000 C 246.400 345.780,246.940 345.600,247.600 345.600 C 248.260 345.600,248.800 345.420,248.800 345.200 C 248.800 344.980,249.419 344.800,250.176 344.800 C 250.933 344.800,251.664 344.620,251.800 344.400 C 251.936 344.180,252.577 344.000,253.224 344.000 C 253.871 344.000,254.400 343.820,254.400 343.600 C 254.400 343.380,255.030 343.200,255.800 343.200 C 256.570 343.200,257.200 343.020,257.200 342.800 C 257.200 342.580,257.740 342.400,258.400 342.400 C 259.060 342.400,259.600 342.243,259.600 342.051 C 259.600 341.859,260.455 341.600,261.500 341.475 C 263.993 341.177,264.719 341.015,265.055 340.678 C 265.208 340.525,265.833 340.400,266.443 340.400 C 267.053 340.400,267.664 340.220,267.800 340.000 C 267.936 339.780,268.566 339.600,269.200 339.600 C 269.834 339.600,270.464 339.420,270.600 339.200 C 270.736 338.980,271.366 338.800,272.000 338.800 C 272.634 338.800,273.264 338.620,273.400 338.400 C 273.536 338.180,274.177 338.000,274.824 338.000 C 275.471 338.000,276.000 337.820,276.000 337.600 C 276.000 337.380,276.619 337.200,277.376 337.200 C 278.133 337.200,278.864 337.020,279.000 336.800 C 279.136 336.580,279.777 336.400,280.424 336.400 C 281.071 336.400,281.600 336.220,281.600 336.000 C 281.600 335.780,282.219 335.600,282.976 335.600 C 283.733 335.600,284.464 335.420,284.600 335.200 C 284.736 334.980,285.377 334.800,286.024 334.800 C 286.671 334.800,287.200 334.620,287.200 334.400 C 287.200 334.180,287.830 334.000,288.600 334.000 C 289.370 334.000,290.000 333.820,290.000 333.600 C 290.000 333.380,290.540 333.200,291.200 333.200 C 291.860 333.200,292.400 333.020,292.400 332.800 C 292.400 332.580,293.019 332.400,293.776 332.400 C 294.533 332.400,295.264 332.220,295.400 332.000 C 295.536 331.780,296.177 331.600,296.824 331.600 C 297.471 331.600,298.000 331.420,298.000 331.200 C 298.000 330.980,298.619 330.800,299.376 330.800 C 300.133 330.800,300.864 330.620,301.000 330.400 C 301.136 330.180,301.777 330.000,302.424 330.000 C 303.071 330.000,303.600 329.820,303.600 329.600 C 303.600 329.380,304.230 329.200,305.000 329.200 C 305.770 329.200,306.400 329.020,306.400 328.800 C 306.400 328.580,306.940 328.400,307.600 328.400 C 308.260 328.400,308.800 328.220,308.800 328.000 C 308.800 327.780,309.520 327.600,310.400 327.600 C 311.280 327.600,312.000 327.420,312.000 327.200 C 312.000 326.980,312.540 326.800,313.200 326.800 C 313.860 326.800,314.400 326.631,314.400 326.424 C 314.400 326.217,315.075 325.992,315.900 325.924 L 317.400 325.800 317.519 322.818 C 317.585 321.178,317.790 319.648,317.974 319.418 C 318.159 319.188,318.340 317.115,318.376 314.811 C 318.413 312.506,318.592 310.526,318.774 310.411 C 318.956 310.295,319.135 308.409,319.170 306.220 C 319.206 304.031,319.395 302.048,319.590 301.812 C 319.785 301.577,319.987 299.281,320.038 296.709 C 320.090 294.138,320.282 292.127,320.466 292.241 C 320.650 292.354,320.800 290.557,320.800 288.247 C 320.800 285.879,320.974 283.939,321.200 283.800 C 321.425 283.661,321.600 281.756,321.600 279.456 C 321.600 277.203,321.771 275.189,321.980 274.980 C 322.189 274.771,322.389 272.575,322.426 270.100 C 322.463 267.625,322.638 265.600,322.814 265.600 C 322.991 265.600,323.136 263.806,323.136 261.614 C 323.136 259.421,323.285 257.396,323.468 257.114 C 323.651 256.831,323.937 254.620,324.104 252.200 C 324.272 249.780,324.484 246.990,324.576 246.000 C 324.669 245.010,324.873 241.230,325.031 237.600 C 325.188 233.970,325.471 230.940,325.658 230.867 C 325.846 230.793,326.000 228.869,326.000 226.590 C 326.000 224.260,326.175 222.339,326.400 222.200 C 326.625 222.061,326.800 220.137,326.800 217.800 C 326.800 215.463,326.975 213.539,327.200 213.400 C 327.427 213.260,327.600 211.263,327.600 208.776 C 327.600 206.125,327.758 204.400,328.000 204.400 C 328.242 204.400,328.400 202.667,328.400 200.000 C 328.400 197.333,328.558 195.600,328.800 195.600 C 329.042 195.600,329.200 193.875,329.200 191.224 C 329.200 188.737,329.373 186.740,329.600 186.600 C 329.827 186.460,330.000 184.463,330.000 181.976 C 330.000 179.325,330.158 177.600,330.400 177.600 C 330.641 177.600,330.800 175.941,330.800 173.424 C 330.800 171.071,330.975 169.139,331.200 169.000 C 331.425 168.861,331.600 166.937,331.600 164.600 C 331.600 162.263,331.775 160.339,332.000 160.200 C 332.227 160.060,332.400 158.063,332.400 155.576 C 332.400 152.925,332.558 151.200,332.800 151.200 C 333.042 151.200,333.200 149.467,333.200 146.800 C 333.200 144.133,333.358 142.400,333.600 142.400 C 333.842 142.400,334.000 140.675,334.000 138.024 C 334.000 135.537,334.173 133.540,334.400 133.400 C 334.627 133.260,334.800 131.263,334.800 128.776 C 334.800 126.125,334.958 124.400,335.200 124.400 C 335.441 124.400,335.600 122.760,335.600 120.280 C 335.600 118.014,335.769 115.989,335.975 115.780 C 336.181 115.571,336.451 113.465,336.575 111.100 C 336.699 108.735,336.901 104.865,337.025 102.500 C 337.149 100.135,337.419 98.029,337.625 97.820 C 337.831 97.611,338.000 95.597,338.000 93.344 C 338.000 91.091,338.162 89.147,338.359 89.025 C 338.557 88.903,338.741 86.971,338.768 84.732 C 338.796 82.492,338.982 80.463,339.181 80.222 C 339.381 79.982,339.642 77.898,339.760 75.592 C 339.948 71.938,340.226 68.414,340.974 60.200 C 341.074 59.100,341.284 55.185,341.441 51.500 C 341.597 47.815,341.877 44.800,342.063 44.800 C 342.248 44.800,342.400 43.990,342.400 43.000 L 342.400 41.200 200.000 41.200 L 57.600 41.200 57.600 42.967 M313.788 69.600 C 313.782 71.250,313.557 74.940,313.289 77.800 C 313.021 80.660,312.631 84.980,312.423 87.400 C 312.215 89.820,311.580 97.200,311.012 103.800 C 308.467 133.380,307.991 138.854,307.620 142.800 C 307.403 145.110,307.035 149.340,306.804 152.200 C 306.572 155.060,306.211 159.200,306.001 161.400 C 305.790 163.600,305.426 167.740,305.192 170.600 C 304.957 173.460,304.593 177.240,304.382 179.000 C 304.171 180.760,303.999 183.100,304.000 184.200 C 304.001 185.300,303.829 187.640,303.618 189.400 C 303.407 191.160,303.040 194.940,302.803 197.800 C 302.168 205.463,301.632 211.665,301.197 216.400 C 300.985 218.710,300.623 222.850,300.392 225.600 C 300.161 228.350,299.802 232.490,299.594 234.800 C 299.080 240.522,298.498 247.212,297.995 253.200 C 297.764 255.950,297.410 260.000,297.209 262.200 C 296.353 271.561,295.550 280.799,293.958 299.600 C 293.496 305.054,293.146 306.400,292.190 306.400 C 291.845 306.400,287.116 307.682,281.682 309.250 C 276.247 310.817,271.260 312.246,270.600 312.426 C 269.572 312.707,263.275 314.496,259.400 315.609 C 255.796 316.645,252.044 317.716,250.900 318.036 C 249.334 318.475,247.263 319.066,245.500 319.577 C 243.500 320.158,241.558 320.711,239.800 321.200 C 238.920 321.445,237.615 321.815,236.900 322.023 C 233.570 322.989,232.736 323.228,228.800 324.338 C 226.490 324.990,219.560 326.967,213.400 328.731 C 207.240 330.496,201.705 332.063,201.100 332.213 L 200.000 332.487 200.000 313.076 C 200.000 292.759,199.978 292.400,198.752 292.400 C 198.332 292.400,197.677 292.239,197.295 292.043 C 196.913 291.846,192.730 290.428,188.000 288.891 C 162.675 280.664,150.516 276.682,149.800 276.379 C 149.360 276.193,147.740 275.651,146.200 275.174 C 144.660 274.698,143.087 274.149,142.705 273.954 C 142.323 273.759,141.659 273.600,141.229 273.600 C 140.799 273.600,140.336 273.420,140.200 273.200 C 140.064 272.980,139.524 272.800,139.000 272.800 C 138.476 272.800,137.936 272.620,137.800 272.400 C 137.664 272.180,137.201 272.000,136.771 272.000 C 135.968 272.000,134.387 271.254,133.961 270.675 C 133.829 270.495,133.508 266.805,133.248 262.475 C 132.987 258.144,132.680 253.700,132.565 252.600 C 132.450 251.500,132.182 248.170,131.970 245.200 C 131.757 242.230,131.390 237.100,131.153 233.800 C 130.916 230.500,130.695 227.170,130.661 226.400 L 130.600 225.000 147.481 224.896 L 164.362 224.791 164.587 226.096 C 164.794 227.292,165.329 233.731,165.843 241.200 C 166.137 245.467,166.289 246.000,167.213 246.000 C 167.652 246.000,168.323 246.176,168.705 246.392 C 169.087 246.607,173.180 248.040,177.800 249.576 C 182.420 251.112,189.103 253.366,192.650 254.585 C 196.198 255.803,199.303 256.800,199.550 256.800 C 199.878 256.800,200.000 250.310,200.000 232.802 L 200.000 208.804 164.900 208.702 L 129.800 208.600 129.522 204.600 C 129.369 202.400,129.048 197.270,128.808 193.200 C 128.568 189.130,128.199 182.920,127.989 179.400 C 127.779 175.880,127.420 169.760,127.192 165.800 C 126.964 161.840,126.600 155.630,126.383 152.000 C 125.553 138.095,125.231 132.740,124.761 125.000 C 124.494 120.600,124.259 115.020,124.238 112.600 L 124.200 108.200 162.000 108.000 L 199.800 107.800 199.900 87.600 C 199.955 76.490,200.085 67.174,200.188 66.899 C 200.338 66.499,211.928 66.418,257.088 66.499 L 313.800 66.600 313.788 69.600 M159.753 144.696 C 159.889 146.183,160.181 149.830,160.402 152.800 C 161.440 166.752,161.596 168.800,161.842 171.700 L 162.105 174.800 181.057 174.800 L 200.009 174.800 199.904 158.500 L 199.800 142.200 179.653 142.096 L 159.506 141.993 159.753 144.696 " stroke="none" fill="#e45304" fill-rule="evenodd"></path><path id="path2" d="M200.190 66.899 C 200.087 67.174,199.958 76.535,199.902 87.700 L 199.800 108.000 238.341 108.000 L 276.882 108.000 276.632 112.900 C 276.494 115.595,276.220 119.960,276.024 122.600 C 275.827 125.240,275.480 129.920,275.252 133.000 C 274.615 141.600,274.533 141.941,273.048 142.207 C 272.362 142.331,255.600 142.380,235.800 142.316 L 199.800 142.200 199.909 158.500 L 200.017 174.800 236.062 174.800 L 272.107 174.800 271.856 178.700 C 271.516 183.996,271.271 188.100,270.789 196.600 C 270.565 200.560,270.209 206.410,269.999 209.600 C 269.293 220.322,268.787 228.553,268.376 236.000 C 268.152 240.070,267.794 246.100,267.582 249.400 C 267.369 252.700,267.016 258.820,266.797 263.000 C 266.328 271.958,267.108 270.878,259.298 273.383 C 256.054 274.424,253.087 275.439,252.705 275.638 C 252.323 275.837,251.659 276.000,251.229 276.000 C 250.799 276.000,250.336 276.180,250.200 276.400 C 250.064 276.620,249.524 276.800,249.000 276.800 C 248.476 276.800,247.936 276.980,247.800 277.200 C 247.664 277.420,247.124 277.600,246.600 277.600 C 246.076 277.600,245.536 277.780,245.400 278.000 C 245.264 278.220,244.724 278.400,244.200 278.400 C 243.676 278.400,243.136 278.580,243.000 278.800 C 242.864 279.020,242.324 279.200,241.800 279.200 C 241.276 279.200,240.736 279.380,240.600 279.600 C 240.464 279.820,239.924 280.000,239.400 280.000 C 238.876 280.000,238.336 280.180,238.200 280.400 C 238.064 280.620,237.524 280.800,237.000 280.800 C 236.476 280.800,235.936 280.980,235.800 281.200 C 235.664 281.420,235.124 281.600,234.600 281.600 C 234.076 281.600,233.536 281.780,233.400 282.000 C 233.264 282.220,232.801 282.400,232.371 282.400 C 231.941 282.400,231.277 282.573,230.895 282.784 C 230.513 282.995,226.960 284.182,223.000 285.422 C 219.040 286.662,215.487 287.839,215.105 288.038 C 214.723 288.237,214.059 288.400,213.629 288.400 C 213.199 288.400,212.736 288.580,212.600 288.800 C 212.464 289.020,211.924 289.200,211.400 289.200 C 210.876 289.200,210.336 289.380,210.200 289.600 C 210.064 289.820,209.524 290.000,209.000 290.000 C 208.476 290.000,207.936 290.180,207.800 290.400 C 207.664 290.620,207.124 290.800,206.600 290.800 C 206.076 290.800,205.536 290.980,205.400 291.200 C 205.264 291.420,204.724 291.600,204.200 291.600 C 203.676 291.600,203.151 291.756,203.032 291.947 C 202.914 292.139,202.139 292.403,201.309 292.536 L 199.800 292.777 199.907 312.630 L 200.015 332.483 201.107 332.211 C 201.708 332.062,207.240 330.496,213.400 328.731 C 219.560 326.967,226.490 324.990,228.800 324.338 C 232.736 323.228,233.570 322.989,236.900 322.023 C 237.615 321.815,238.920 321.445,239.800 321.200 C 241.558 320.711,243.500 320.158,245.500 319.577 C 247.263 319.066,249.334 318.475,250.900 318.036 C 252.044 317.716,255.796 316.645,259.400 315.609 C 263.275 314.496,269.572 312.707,270.600 312.426 C 271.260 312.246,276.247 310.817,281.682 309.250 C 287.116 307.682,291.845 306.400,292.190 306.400 C 293.146 306.400,293.496 305.054,293.958 299.600 C 295.550 280.799,296.353 271.561,297.209 262.200 C 297.410 260.000,297.764 255.950,297.995 253.200 C 298.498 247.212,299.080 240.522,299.594 234.800 C 299.802 232.490,300.161 228.350,300.392 225.600 C 300.623 222.850,300.985 218.710,301.197 216.400 C 301.632 211.665,302.168 205.463,302.803 197.800 C 303.040 194.940,303.407 191.160,303.618 189.400 C 303.829 187.640,304.001 185.300,304.000 184.200 C 303.999 183.100,304.171 180.760,304.382 179.000 C 304.593 177.240,304.957 173.460,305.192 170.600 C 305.426 167.740,305.790 163.600,306.001 161.400 C 306.211 159.200,306.572 155.060,306.804 152.200 C 307.035 149.340,307.403 145.110,307.620 142.800 C 307.991 138.854,308.467 133.380,311.012 103.800 C 311.580 97.200,312.215 89.820,312.423 87.400 C 312.631 84.980,313.021 80.660,313.289 77.800 C 313.557 74.940,313.782 71.250,313.788 69.600 L 313.800 66.600 257.088 66.499 C 211.927 66.418,200.338 66.499,200.190 66.899 M200.000 232.800 C 200.000 251.013,200.114 256.800,200.473 256.800 C 200.907 256.800,204.681 255.588,206.600 254.833 C 207.699 254.400,209.724 253.716,222.400 249.493 C 235.214 245.225,233.815 246.299,234.142 240.474 C 234.286 237.903,234.580 233.280,234.796 230.200 C 235.011 227.120,235.374 221.360,235.602 217.400 C 235.830 213.440,236.115 209.885,236.235 209.500 C 236.441 208.840,235.403 208.800,218.227 208.800 L 200.000 208.800 200.000 232.800 M75.293 242.000 C 75.293 242.770,75.375 243.085,75.476 242.700 C 75.576 242.315,75.576 241.685,75.476 241.300 C 75.375 240.915,75.293 241.230,75.293 242.000 " stroke="none" fill="#fc6c04" fill-rule="evenodd"></path><path id="path3" d="M124.267 108.267 C 123.911 108.622,123.990 115.284,124.380 117.800 C 124.561 118.967,124.604 117.427,124.483 114.101 L 124.276 108.402 200.638 108.300 L 277.000 108.198 200.767 108.099 C 158.838 108.045,124.413 108.120,124.267 108.267 M276.465 114.000 C 276.425 114.770,276.304 116.120,276.197 117.000 L 276.003 118.600 276.423 117.262 C 276.654 116.527,276.774 115.177,276.691 114.262 C 276.548 112.691,276.536 112.677,276.465 114.000 M124.830 126.233 C 124.846 128.195,125.006 130.610,125.185 131.600 C 125.388 132.718,125.432 131.429,125.300 128.200 C 125.056 122.170,124.787 121.045,124.830 126.233 M275.665 124.400 C 275.625 125.170,275.504 126.520,275.397 127.400 L 275.203 129.000 275.623 127.662 C 275.854 126.927,275.974 125.577,275.891 124.662 C 275.748 123.091,275.736 123.077,275.665 124.400 M274.914 135.400 C 274.917 136.500,274.995 136.903,275.087 136.295 C 275.179 135.686,275.177 134.786,275.082 134.295 C 274.987 133.803,274.911 134.300,274.914 135.400 M125.630 139.433 C 125.646 141.395,125.806 143.810,125.985 144.800 C 126.188 145.918,126.232 144.629,126.100 141.400 C 125.856 135.370,125.587 134.245,125.630 139.433 M182.600 142.022 C 216.550 142.412,272.874 142.398,273.800 142.000 C 274.250 141.806,249.422 141.678,217.000 141.706 C 172.533 141.745,164.690 141.817,182.600 142.022 M159.895 150.600 C 160.013 152.800,160.175 154.675,160.255 154.767 C 160.533 155.086,160.303 148.991,159.992 147.800 C 159.819 147.134,159.775 148.379,159.895 150.600 M126.430 152.833 C 126.446 154.905,126.605 157.410,126.783 158.400 C 126.981 159.500,127.025 158.100,126.898 154.800 C 126.655 148.511,126.387 147.386,126.430 152.833 M160.702 161.800 C 160.817 164.440,160.976 166.675,161.056 166.767 C 161.333 167.087,161.138 160.585,160.817 158.800 C 160.613 157.669,160.570 158.783,160.702 161.800 M127.230 167.433 C 127.246 169.175,127.411 171.410,127.597 172.400 C 127.819 173.580,127.860 172.548,127.716 169.400 C 127.465 163.890,127.186 162.762,127.230 167.433 M161.479 171.200 C 161.602 173.070,161.770 174.675,161.851 174.767 C 162.139 175.089,161.950 170.982,161.605 169.400 C 161.356 168.257,161.320 168.772,161.479 171.200 M128.030 180.633 C 128.046 182.375,128.211 184.610,128.397 185.600 C 128.619 186.780,128.660 185.748,128.516 182.600 C 128.265 177.090,127.986 175.962,128.030 180.633 M271.435 180.635 C 271.283 182.316,271.241 183.774,271.342 183.876 C 271.443 183.977,271.655 182.688,271.812 181.012 C 271.969 179.336,272.011 177.877,271.905 177.771 C 271.799 177.666,271.588 178.954,271.435 180.635 M270.914 192.200 C 270.917 193.300,270.995 193.703,271.087 193.095 C 271.179 192.486,271.177 191.586,271.082 191.095 C 270.987 190.603,270.911 191.100,270.914 192.200 M128.840 194.033 C 128.861 195.665,129.023 197.990,129.198 199.200 C 129.405 200.624,129.443 199.636,129.306 196.400 C 129.072 190.876,128.778 189.380,128.840 194.033 M270.524 197.000 C 270.526 198.320,270.601 198.812,270.690 198.093 C 270.779 197.374,270.777 196.294,270.686 195.693 C 270.595 195.092,270.522 195.680,270.524 197.000 M270.109 205.600 C 270.109 206.590,270.187 206.995,270.282 206.500 C 270.378 206.005,270.378 205.195,270.282 204.700 C 270.187 204.205,270.109 204.610,270.109 205.600 M129.738 207.000 L 129.800 208.600 182.800 208.603 L 235.800 208.606 183.000 208.403 L 130.200 208.200 129.938 206.800 L 129.675 205.400 129.738 207.000 M269.720 209.600 C 269.720 210.810,269.795 211.305,269.887 210.700 C 269.978 210.095,269.978 209.105,269.887 208.500 C 269.795 207.895,269.720 208.390,269.720 209.600 M236.101 211.000 C 236.105 211.880,236.187 212.193,236.283 211.695 C 236.379 211.198,236.375 210.478,236.275 210.095 C 236.175 209.713,236.096 210.120,236.101 211.000 M235.740 216.800 C 235.740 218.670,235.809 219.435,235.893 218.500 C 235.977 217.565,235.977 216.035,235.893 215.100 C 235.809 214.165,235.740 214.930,235.740 216.800 M269.314 218.200 C 269.317 219.300,269.395 219.703,269.487 219.095 C 269.579 218.486,269.577 217.586,269.482 217.095 C 269.387 216.603,269.311 217.100,269.314 218.200 M268.920 222.400 C 268.920 223.610,268.995 224.105,269.087 223.500 C 269.178 222.895,269.178 221.905,269.087 221.300 C 268.995 220.695,268.920 221.190,268.920 222.400 M235.301 223.000 C 235.305 223.880,235.387 224.193,235.483 223.695 C 235.579 223.198,235.575 222.478,235.475 222.095 C 235.375 221.713,235.296 222.120,235.301 223.000 M130.568 225.339 C 130.454 225.636,130.545 226.761,130.769 227.839 L 131.177 229.800 131.020 227.523 C 130.916 226.025,131.023 225.180,131.331 225.054 C 131.661 224.920,131.648 224.854,131.287 224.832 C 131.006 224.814,130.682 225.043,130.568 225.339 M164.509 228.000 C 164.509 228.990,164.587 229.395,164.682 228.900 C 164.778 228.405,164.778 227.595,164.682 227.100 C 164.587 226.605,164.509 227.010,164.509 228.000 M234.934 229.600 C 234.934 231.250,235.005 231.925,235.091 231.100 C 235.178 230.275,235.178 228.925,235.091 228.100 C 235.005 227.275,234.934 227.950,234.934 229.600 M268.501 231.400 C 268.505 232.280,268.587 232.593,268.683 232.095 C 268.779 231.598,268.775 230.878,268.675 230.495 C 268.575 230.113,268.496 230.520,268.501 231.400 M164.835 233.033 C 164.854 234.555,165.013 236.700,165.188 237.800 C 165.393 239.085,165.432 238.157,165.298 235.200 C 165.066 230.082,164.781 228.746,164.835 233.033 M234.501 235.000 C 234.505 235.880,234.587 236.193,234.683 235.695 C 234.779 235.198,234.775 234.478,234.675 234.095 C 234.575 233.713,234.496 234.120,234.501 235.000 M131.286 235.600 C 131.271 236.590,131.403 238.210,131.580 239.200 C 132.024 241.699,132.054 239.161,131.617 236.000 L 131.313 233.800 131.286 235.600 M268.137 237.000 C 268.139 238.760,268.209 239.430,268.293 238.489 C 268.378 237.549,268.377 236.109,268.291 235.289 C 268.205 234.470,268.136 235.240,268.137 237.000 M234.134 241.600 C 234.134 243.250,234.205 243.925,234.291 243.100 C 234.378 242.275,234.378 240.925,234.291 240.100 C 234.205 239.275,234.134 239.950,234.134 241.600 M165.638 242.600 C 165.624 243.920,165.756 245.227,165.932 245.504 C 166.108 245.780,166.182 244.880,166.097 243.504 C 165.887 240.110,165.669 239.680,165.638 242.600 M267.701 244.200 C 267.705 245.080,267.787 245.393,267.883 244.895 C 267.979 244.398,267.975 243.678,267.875 243.295 C 267.775 242.913,267.696 243.320,267.701 244.200 M132.086 246.200 C 132.071 247.300,132.203 249.010,132.380 250.000 L 132.700 251.800 132.710 250.200 C 132.716 249.320,132.584 247.610,132.417 246.400 L 132.113 244.200 132.086 246.200 M267.337 249.800 C 267.339 251.560,267.409 252.230,267.493 251.289 C 267.578 250.349,267.577 248.909,267.491 248.089 C 267.405 247.270,267.336 248.040,267.337 249.800 M174.400 248.800 C 174.730 249.013,175.270 249.188,175.600 249.188 C 176.133 249.188,176.133 249.145,175.600 248.800 C 175.270 248.587,174.730 248.412,174.400 248.412 C 173.867 248.412,173.867 248.455,174.400 248.800 M186.044 252.547 C 186.392 252.939,190.860 254.474,191.062 254.271 C 191.155 254.178,190.359 253.817,189.294 253.469 C 188.228 253.120,187.006 252.708,186.578 252.554 C 186.150 252.399,185.910 252.396,186.044 252.547 M210.600 253.414 C 208.985 254.154,209.951 254.155,211.654 253.416 C 212.394 253.094,212.730 252.839,212.400 252.848 C 212.070 252.857,211.260 253.112,210.600 253.414 M191.633 254.554 C 192.198 255.078,199.397 257.220,200.121 257.080 C 200.924 256.924,200.914 256.904,200.000 256.849 C 199.450 256.816,197.470 256.254,195.600 255.600 C 192.447 254.497,191.223 254.175,191.633 254.554 M132.908 257.000 C 132.903 258.100,133.029 260.260,133.187 261.800 L 133.474 264.600 133.494 262.200 C 133.504 260.880,133.379 258.720,133.215 257.400 L 132.918 255.000 132.908 257.000 M266.901 257.000 C 266.905 257.880,266.987 258.193,267.083 257.695 C 267.179 257.198,267.175 256.478,267.075 256.095 C 266.975 255.713,266.896 256.120,266.901 257.000 M266.542 263.800 C 266.541 265.780,266.608 266.640,266.692 265.712 C 266.776 264.784,266.777 263.164,266.695 262.112 C 266.612 261.060,266.543 261.820,266.542 263.800 M133.662 267.800 C 133.601 269.719,133.953 271.200,134.470 271.200 C 134.678 271.200,134.705 270.975,134.531 270.700 C 134.357 270.425,134.101 269.300,133.963 268.200 C 133.722 266.277,133.711 266.262,133.662 267.800 M265.952 269.913 C 265.821 270.707,265.879 271.081,266.101 270.859 C 266.303 270.657,266.401 270.067,266.319 269.546 C 266.193 268.745,266.137 268.802,265.952 269.913 M152.000 276.946 C 152.000 277.133,155.789 278.408,156.275 278.384 C 156.746 278.362,154.392 277.378,153.100 277.057 C 152.495 276.907,152.000 276.857,152.000 276.946 M156.818 278.535 C 157.134 278.875,164.490 281.244,164.669 281.064 C 164.753 280.981,163.421 280.457,161.710 279.900 C 157.408 278.499,156.566 278.264,156.818 278.535 M177.800 285.600 C 178.240 285.789,178.870 285.944,179.200 285.944 C 179.578 285.944,179.504 285.817,179.000 285.600 C 178.560 285.411,177.930 285.256,177.600 285.256 C 177.222 285.256,177.296 285.383,177.800 285.600 M197.400 292.000 C 197.536 292.220,198.042 292.387,198.524 292.372 C 199.369 292.345,199.371 292.331,198.600 292.000 C 197.499 291.527,197.108 291.527,197.400 292.000 " stroke="none" fill="#f49253" fill-rule="evenodd"></path><path id="path4" d="M200.358 108.700 L 276.516 108.802 276.241 111.701 C 275.690 117.497,275.192 124.702,275.030 129.200 L 274.865 133.800 275.191 129.800 C 275.371 127.600,275.716 123.280,275.958 120.200 C 276.200 117.120,276.514 113.205,276.657 111.500 L 276.915 108.400 200.558 108.499 L 124.200 108.598 200.358 108.700 M124.703 117.200 C 124.816 120.170,124.974 122.675,125.054 122.767 C 125.310 123.059,125.125 116.690,124.805 114.200 C 124.613 112.700,124.575 113.824,124.703 117.200 M125.500 130.800 C 125.615 133.550,125.775 135.875,125.855 135.967 C 126.126 136.278,125.932 129.812,125.610 127.800 C 125.408 126.539,125.368 127.648,125.500 130.800 M274.160 137.797 C 273.957 139.889,273.905 141.600,274.044 141.600 C 274.329 141.600,274.959 134.425,274.697 134.163 C 274.604 134.071,274.362 135.706,274.160 137.797 M126.305 144.200 C 126.418 146.840,126.576 149.075,126.656 149.167 C 126.921 149.473,126.734 143.425,126.415 141.400 C 126.217 140.142,126.176 141.181,126.305 144.200 M159.467 141.467 C 159.320 141.613,159.203 141.928,159.206 142.167 C 159.210 142.426,159.338 142.401,159.527 142.104 C 159.770 141.722,164.492 141.583,180.021 141.500 L 200.200 141.392 179.967 141.296 C 168.838 141.243,159.613 141.320,159.467 141.467 M159.230 146.633 C 159.246 147.935,159.407 149.810,159.587 150.800 C 159.806 152.003,159.844 151.274,159.702 148.600 C 159.466 144.148,159.184 142.975,159.230 146.633 M126.914 154.600 C 126.917 155.700,126.995 156.103,127.087 155.495 C 127.179 154.886,127.177 153.986,127.082 153.495 C 126.987 153.003,126.911 153.500,126.914 154.600 M160.030 157.233 C 160.046 158.645,160.205 160.610,160.384 161.600 C 160.596 162.775,160.635 161.942,160.499 159.200 C 160.263 154.485,159.984 153.316,160.030 157.233 M127.346 160.600 C 127.347 162.800,127.414 163.649,127.495 162.487 C 127.576 161.324,127.576 159.524,127.493 158.487 C 127.411 157.449,127.345 158.400,127.346 160.600 M127.714 168.200 C 127.717 169.300,127.795 169.703,127.887 169.095 C 127.979 168.486,127.977 167.586,127.882 167.095 C 127.787 166.603,127.711 167.100,127.714 168.200 M160.830 168.633 C 160.846 169.715,161.013 171.410,161.202 172.400 C 161.448 173.697,161.482 173.193,161.324 170.600 C 161.084 166.682,160.782 165.479,160.830 168.633 M128.144 174.000 C 128.144 176.090,128.212 176.945,128.294 175.900 C 128.376 174.855,128.376 173.145,128.294 172.100 C 128.212 171.055,128.144 171.910,128.144 174.000 M216.440 175.100 L 271.480 175.203 271.361 178.301 L 271.242 181.400 271.629 178.610 C 271.842 177.075,271.928 175.590,271.821 175.310 C 271.663 174.900,260.860 174.819,216.513 174.899 L 161.400 174.997 216.440 175.100 M128.514 181.400 C 128.517 182.500,128.595 182.903,128.687 182.295 C 128.779 181.686,128.777 180.786,128.682 180.295 C 128.587 179.803,128.511 180.300,128.514 181.400 M270.678 188.345 C 270.501 191.724,270.437 194.571,270.537 194.670 C 270.800 194.933,271.294 186.122,271.135 184.000 C 271.061 183.010,270.855 184.965,270.678 188.345 M128.946 187.400 C 128.947 189.600,129.014 190.449,129.095 189.287 C 129.176 188.124,129.176 186.324,129.093 185.287 C 129.011 184.249,128.945 185.200,128.946 187.400 M129.320 195.200 C 129.320 196.410,129.395 196.905,129.487 196.300 C 129.578 195.695,129.578 194.705,129.487 194.100 C 129.395 193.495,129.320 193.990,129.320 195.200 M269.853 202.125 C 269.668 204.944,269.608 207.341,269.719 207.452 C 270.003 207.737,270.500 200.537,270.329 198.600 C 270.252 197.720,270.037 199.306,269.853 202.125 M129.746 201.800 C 129.747 204.000,129.814 204.849,129.895 203.687 C 129.976 202.524,129.976 200.724,129.893 199.687 C 129.811 198.649,129.745 199.600,129.746 201.800 M130.107 207.200 L 130.200 208.200 165.400 208.204 L 200.600 208.209 165.640 208.004 C 131.156 207.803,130.676 207.789,130.347 207.000 C 130.054 206.296,130.025 206.320,130.107 207.200 M235.924 208.673 C 236.328 208.835,236.403 209.858,236.250 213.141 C 236.103 216.300,236.138 216.832,236.386 215.200 C 237.010 211.103,236.895 208.396,236.100 208.432 C 235.644 208.452,235.582 208.536,235.924 208.673 M269.055 214.729 C 268.873 217.660,268.813 220.147,268.922 220.255 C 269.194 220.527,269.708 212.529,269.529 210.800 C 269.450 210.030,269.236 211.798,269.055 214.729 M235.410 224.463 C 235.244 227.028,235.194 229.368,235.299 229.663 C 235.403 229.958,235.624 228.102,235.790 225.537 C 235.956 222.972,236.006 220.632,235.901 220.337 C 235.797 220.042,235.576 221.898,235.410 224.463 M268.232 228.463 C 268.054 231.028,267.994 233.368,268.099 233.663 C 268.350 234.372,268.929 226.090,268.719 224.800 C 268.629 224.250,268.410 225.898,268.232 228.463 M139.500 225.100 C 143.955 225.164,151.245 225.164,155.700 225.100 C 160.155 225.035,156.510 224.982,147.600 224.982 C 138.690 224.982,135.045 225.035,139.500 225.100 M164.035 227.233 C 164.054 228.205,164.220 229.900,164.404 231.000 C 164.649 232.473,164.680 232.052,164.520 229.400 C 164.293 225.624,163.975 224.204,164.035 227.233 M131.240 230.833 C 131.261 232.245,131.422 234.390,131.597 235.600 C 131.808 237.061,131.844 236.254,131.704 233.200 C 131.476 228.211,131.176 226.683,131.240 230.833 M234.627 236.429 C 234.455 238.755,234.392 241.005,234.488 241.429 C 234.583 241.853,234.802 240.297,234.973 237.971 C 235.145 235.645,235.208 233.395,235.112 232.971 C 235.017 232.547,234.798 234.103,234.627 236.429 M164.883 237.800 C 164.870 238.680,165.003 240.210,165.180 241.200 C 165.630 243.731,165.665 241.064,165.218 238.200 C 164.915 236.252,164.906 236.241,164.883 237.800 M267.432 241.263 C 267.254 243.828,267.194 246.168,267.299 246.463 C 267.550 247.172,268.129 238.890,267.919 237.600 C 267.829 237.050,267.610 238.698,267.432 241.263 M132.131 241.800 C 132.133 243.340,132.205 243.921,132.292 243.091 C 132.379 242.261,132.377 241.001,132.289 240.291 C 132.200 239.581,132.129 240.260,132.131 241.800 M132.509 246.400 C 132.509 247.390,132.587 247.795,132.682 247.300 C 132.778 246.805,132.778 245.995,132.682 245.500 C 132.587 245.005,132.509 245.410,132.509 246.400 M165.606 245.495 C 165.600 245.980,168.061 247.220,168.949 247.179 C 169.197 247.168,168.680 246.866,167.800 246.508 C 166.920 246.149,166.068 245.664,165.906 245.428 C 165.708 245.140,165.610 245.162,165.606 245.495 M231.319 246.562 C 230.615 246.818,229.895 247.179,229.719 247.364 C 229.355 247.747,230.828 247.348,232.600 246.583 C 234.087 245.942,233.070 245.924,231.319 246.562 M222.800 249.600 C 222.267 249.945,222.267 249.988,222.800 249.988 C 223.130 249.988,223.670 249.813,224.000 249.600 C 224.533 249.255,224.533 249.212,224.000 249.212 C 223.670 249.212,223.130 249.387,222.800 249.600 M132.934 252.400 C 132.934 254.050,133.005 254.725,133.091 253.900 C 133.178 253.075,133.178 251.725,133.091 250.900 C 133.005 250.075,132.934 250.750,132.934 252.400 M266.610 254.462 C 266.444 257.246,266.394 259.766,266.498 260.062 C 266.603 260.358,266.824 258.322,266.990 255.538 C 267.156 252.754,267.206 250.234,267.102 249.938 C 266.997 249.642,266.776 251.678,266.610 254.462 M220.400 250.400 C 219.867 250.745,219.867 250.788,220.400 250.788 C 220.730 250.788,221.270 250.613,221.600 250.400 C 222.133 250.055,222.133 250.012,221.600 250.012 C 221.270 250.012,220.730 250.187,220.400 250.400 M218.000 251.200 C 217.467 251.545,217.467 251.588,218.000 251.588 C 218.330 251.588,218.870 251.413,219.200 251.200 C 219.733 250.855,219.733 250.812,219.200 250.812 C 218.870 250.812,218.330 250.987,218.000 251.200 M215.600 252.000 C 215.067 252.345,215.067 252.388,215.600 252.388 C 215.930 252.388,216.470 252.213,216.800 252.000 C 217.333 251.655,217.333 251.612,216.800 251.612 C 216.470 251.612,215.930 251.787,215.600 252.000 M206.475 255.073 C 204.866 255.629,203.634 256.168,203.738 256.271 C 203.958 256.491,209.225 254.793,209.780 254.322 C 210.384 253.810,209.647 253.978,206.475 255.073 M133.314 257.400 C 133.317 258.500,133.395 258.903,133.487 258.295 C 133.579 257.686,133.577 256.786,133.482 256.295 C 133.387 255.803,133.311 256.300,133.314 257.400 M200.600 257.043 L 199.000 257.602 200.600 257.364 C 202.265 257.117,204.013 256.394,202.800 256.454 C 202.470 256.470,201.480 256.735,200.600 257.043 M133.640 263.833 C 133.661 264.915,133.826 266.790,134.006 268.000 C 134.241 269.590,134.273 269.091,134.118 266.200 C 133.895 262.027,133.571 260.424,133.640 263.833 M265.862 266.800 C 265.676 268.890,265.316 270.748,265.062 270.930 C 264.749 271.154,264.790 271.209,265.188 271.101 C 265.963 270.890,266.459 268.383,266.316 265.400 C 266.207 263.149,266.179 263.236,265.862 266.800 M134.648 270.793 C 135.090 271.216,141.250 273.283,141.456 273.077 C 141.539 272.994,139.963 272.370,137.952 271.691 C 135.941 271.012,134.454 270.608,134.648 270.793 M263.000 271.600 C 262.229 271.931,262.231 271.945,263.076 271.972 C 263.558 271.987,264.064 271.820,264.200 271.600 C 264.492 271.127,264.101 271.127,263.000 271.600 M249.293 276.079 C 243.955 277.862,239.656 279.389,239.740 279.473 C 239.897 279.631,259.248 273.285,259.559 272.974 C 259.973 272.561,258.468 273.016,249.293 276.079 M231.400 282.029 C 230.520 282.452,230.250 282.686,230.800 282.550 C 232.305 282.175,234.284 281.266,233.600 281.262 C 233.270 281.261,232.280 281.606,231.400 282.029 M227.600 283.200 C 226.805 283.714,227.804 283.714,229.000 283.200 L 229.800 282.856 229.000 282.834 C 228.560 282.822,227.930 282.987,227.600 283.200 M225.200 284.000 C 224.667 284.345,224.667 284.388,225.200 284.388 C 225.530 284.388,226.070 284.213,226.400 284.000 C 226.933 283.655,226.933 283.612,226.400 283.612 C 226.070 283.612,225.530 283.787,225.200 284.000 M222.800 284.800 C 222.267 285.145,222.267 285.188,222.800 285.188 C 223.130 285.188,223.670 285.013,224.000 284.800 C 224.533 284.455,224.533 284.412,224.000 284.412 C 223.670 284.412,223.130 284.587,222.800 284.800 M220.400 285.600 C 219.867 285.945,219.867 285.988,220.400 285.988 C 220.730 285.988,221.270 285.813,221.600 285.600 C 222.133 285.255,222.133 285.212,221.600 285.212 C 221.270 285.212,220.730 285.387,220.400 285.600 M181.353 286.286 C 181.743 286.676,184.510 287.592,185.200 287.560 C 185.530 287.544,185.350 287.381,184.800 287.197 C 182.279 286.354,181.112 286.046,181.353 286.286 M208.000 289.665 C 204.810 290.761,201.480 291.805,200.600 291.985 C 199.418 292.227,199.274 292.324,200.049 292.356 C 200.973 292.395,214.277 288.256,214.750 287.783 C 215.228 287.305,213.327 287.835,208.000 289.665 " stroke="none" fill="#fcae6c" fill-rule="evenodd"></path></g></svg>