<?xml version="1.0" standalone="no"?>
<!DOCTYPE svg PUBLIC "-//W3C//DTD SVG 20010904//EN"
 "http://www.w3.org/TR/2001/REC-SVG-20010904/DTD/svg10.dtd">
<svg version="1.0" xmlns="http://www.w3.org/2000/svg"
 width="4.5rem" height="4.5rem" viewBox="0 0 512.000000 512.000000"
 preserveAspectRatio="xMidYMid meet">

<g transform="translate(0.000000,512.000000) scale(0.100000,-0.100000)"
fill="#9FA4FA" stroke="none">
<path d="M1492 4784 c-98 -26 -173 -78 -224 -155 -21 -33 -127 -287 -272 -656
-130 -331 -236 -604 -236 -607 0 -4 75 -6 168 -6 l167 0 49 125 c27 69 50 125
52 125 1 0 145 -56 320 -125 l317 -125 863 2 864 3 -1056 415 c-581 228 -1060
418 -1066 421 -14 9 77 240 103 262 12 9 32 17 44 17 40 0 3178 -1238 3198
-1261 9 -12 17 -32 17 -45 0 -30 -89 -254 -101 -254 -4 0 -110 40 -234 89
-124 49 -224 86 -222 82 68 -126 77 -180 77 -462 l0 -247 73 -28 c39 -15 74
-29 76 -31 2 -1 -31 -90 -73 -197 l-76 -195 2 -425 3 -426 392 998 c299 761
393 1011 398 1058 9 77 -13 169 -59 244 -70 114 -24 93 -1326 605 -652 257
-1374 541 -1604 631 -492 194 -516 200 -634 168z"/>
<path d="M305 3186 c-148 -36 -262 -153 -294 -304 -15 -74 -16 -2169 0 -2244
32 -154 152 -274 307 -307 75 -16 3449 -16 3524 0 155 33 275 153 307 307 15
74 15 2170 0 2244 -32 154 -152 274 -307 307 -79 16 -3468 14 -3537 -3z m655
-1026 l0 -400 -104 0 c-116 0 -149 14 -193 79 -23 33 -23 39 -23 321 0 282 0
288 23 321 44 65 77 79 193 79 l104 0 0 -400z m561 377 c41 -28 79 -82 79
-113 l0 -24 -240 0 -240 0 0 80 0 80 184 0 c174 0 185 -1 217 -23z m79 -377
l0 -80 -240 0 -240 0 0 80 0 80 240 0 240 0 0 -80z m0 -264 c0 -31 -38 -85
-79 -113 -32 -22 -43 -23 -217 -23 l-184 0 0 80 0 80 240 0 240 0 0 -24z
m-505 -801 c16 -15 25 -36 25 -55 0 -19 -9 -40 -25 -55 -24 -25 -26 -25 -215
-25 -189 0 -191 0 -215 25 -16 15 -25 36 -25 55 0 19 9 40 25 55 24 25 26 25
215 25 189 0 191 0 215 -25z m800 0 c16 -15 25 -36 25 -55 0 -19 -9 -40 -25
-55 -24 -25 -26 -25 -215 -25 -189 0 -191 0 -215 25 -16 15 -25 36 -25 55 0
19 9 40 25 55 24 25 26 25 215 25 189 0 191 0 215 -25z m800 0 c16 -15 25 -36
25 -55 0 -19 -9 -40 -25 -55 -24 -25 -26 -25 -215 -25 -189 0 -191 0 -215 25
-16 15 -25 36 -25 55 0 19 9 40 25 55 24 25 26 25 215 25 189 0 191 0 215 -25z
m800 0 c16 -15 25 -36 25 -55 0 -19 -9 -40 -25 -55 -24 -25 -26 -25 -215 -25
-189 0 -191 0 -215 25 -16 15 -25 36 -25 55 0 19 9 40 25 55 24 25 26 25 215
25 189 0 191 0 215 -25z"/>
</g>
</svg>
