<?xml version="1.0" standalone="no"?>
<!DOCTYPE svg PUBLIC "-//W3C//DTD SVG 20010904//EN"
 "http://www.w3.org/TR/2001/REC-SVG-20010904/DTD/svg10.dtd">
<svg version="1.0" xmlns="http://www.w3.org/2000/svg"
 width="6.5rem" height="6.5rem" viewBox="0 0 260.000000 280.000000"
 preserveAspectRatio="xMidYMid meet">

<g transform="translate(0.000000,280.000000) scale(0.100000,-0.100000)"
fill="#9FA4FA" stroke="none">
<path d="M1162 2288 c-7 -7 -12 -39 -12 -74 0 -37 -5 -66 -12 -72 -20 -15
-161 -72 -180 -72 -10 0 -35 17 -56 38 -64 64 -64 64 -169 -41 -51 -51 -93
-98 -93 -105 0 -7 20 -32 45 -58 25 -25 45 -53 45 -62 0 -19 -57 -160 -72
-179 -6 -8 -35 -13 -72 -13 -35 0 -67 -5 -74 -12 -17 -17 -17 -259 0 -276 7
-7 39 -12 74 -12 71 0 74 -3 104 -83 12 -31 25 -57 29 -57 3 0 35 29 71 65
l64 64 -12 51 c-37 159 11 324 127 441 77 77 208 139 292 139 22 0 28 5 33 33
11 58 64 156 110 202 80 80 64 95 -104 95 -85 0 -130 -4 -138 -12z"/>
<path d="M1680 2251 c-120 -35 -167 -59 -214 -111 -80 -89 -110 -201 -82 -311
l17 -63 -333 -333 c-302 -302 -336 -333 -366 -333 -104 0 -197 -115 -177 -219
32 -171 254 -218 346 -72 20 30 29 58 29 86 0 40 5 45 333 373 l333 333 63
-17 c140 -35 288 24 367 148 32 50 88 248 74 262 -7 7 -45 -24 -119 -98 l-110
-109 -88 37 -89 37 -39 91 -38 90 108 108 c62 62 105 113 101 119 -9 14 -3 15
-116 -18z m-920 -1258 c85 -50 51 -173 -48 -173 -95 0 -127 129 -44 174 36 20
58 20 92 -1z"/>
<path d="M1744 2072 l-52 -57 22 -43 c17 -33 33 -48 66 -63 l44 -20 55 56 56
55 -65 65 c-35 36 -67 65 -70 64 -3 0 -28 -26 -56 -57z"/>
<path d="M2005 1603 c-51 -47 -146 -98 -201 -109 -30 -6 -32 -9 -38 -65 -10
-84 -71 -202 -139 -266 -118 -112 -281 -157 -437 -121 l-51 12 -64 -64 c-36
-36 -65 -68 -65 -71 0 -4 26 -17 57 -29 80 -30 83 -33 83 -104 0 -35 5 -67 12
-74 17 -17 259 -17 276 0 7 7 12 39 12 74 0 37 5 66 13 72 17 14 137 63 167
68 19 4 37 -6 75 -41 27 -25 53 -45 58 -45 14 0 197 181 197 194 0 6 -20 34
-45 61 -35 38 -45 56 -41 75 5 30 54 150 68 168 6 7 35 12 72 12 35 0 67 5 74
12 8 8 12 53 12 138 0 169 -11 181 -95 103z"/>
</g>
</svg>
