<?xml version="1.0" standalone="no"?>
<!DOCTYPE svg PUBLIC "-//W3C//DTD SVG 20010904//EN"
 "http://www.w3.org/TR/2001/REC-SVG-20010904/DTD/svg10.dtd">
<svg version="1.0" xmlns="http://www.w3.org/2000/svg"
 width="10rem" height="10rem" viewBox="0 0 600.000000 620.000000"
 preserveAspectRatio="xMidYMid meet">

<g transform="translate(0.000000,620.000000) scale(0.100000,-0.100000)"
fill="#9FA4FA" stroke="none">
<path d="M2166 4345 c-58 -21 -88 -46 -113 -95 -20 -39 -23 -59 -23 -167 l0
-123 45 0 45 0 0 119 c0 117 1 119 28 149 20 21 41 32 73 37 24 3 517 5 1094
3 984 -3 1052 -4 1076 -21 14 -9 31 -29 37 -42 11 -24 13 -298 12 -1458 l0
-229 -34 -34 -34 -34 -546 0 -546 0 0 -45 0 -44 133 -3 132 -3 3 -107 3 -108
-140 0 -140 0 -21 -46 c-11 -26 -20 -48 -20 -50 0 -7 478 -4 494 2 49 19 38
78 -16 89 -72 14 -68 7 -68 121 l0 104 370 0 c403 0 414 1 466 57 58 62 56 23
55 942 l-1 845 -23 46 c-25 49 -69 84 -126 100 -23 6 -419 10 -1106 10 -893
-1 -1077 -3 -1109 -15z m2301 -1082 c-2 -38 -3 -7 -3 67 0 74 1 105 3 68 2
-38 2 -98 0 -135z m0 -195 c-3 -8 -6 -5 -6 6 -1 11 2 17 5 13 3 -3 4 -12 1
-19z m0 -70 c-3 -8 -6 -5 -6 6 -1 11 2 17 5 13 3 -3 4 -12 1 -19z"/>
<path d="M2325 4146 c-60 -27 -105 -97 -105 -163 0 -21 5 -23 45 -23 42 0 45
2 45 26 0 15 12 38 29 55 l29 29 912 0 912 0 29 -30 30 -29 -2 -578 c-1 -376
-6 -586 -12 -601 -23 -51 -32 -52 -512 -52 l-445 0 0 -45 0 -46 468 3 468 3
43 28 c83 55 81 31 81 702 0 552 -2 593 -19 630 -21 46 -54 79 -94 94 -19 8
-321 11 -950 11 -748 -1 -928 -3 -952 -14z"/>
<path d="M1845 3796 c-37 -17 -80 -62 -94 -99 -7 -18 -11 -152 -11 -368 l0
-339 45 0 45 0 0 336 0 336 29 29 29 29 547 0 547 0 29 -29 29 -29 0 -727 c0
-766 0 -771 -44 -788 -9 -4 -64 -7 -124 -8 l-109 -1 -21 -50 -21 -50 143 4
c137 3 144 4 185 31 27 18 50 44 62 70 18 40 19 77 19 785 0 609 -2 748 -14
775 -16 39 -61 82 -99 96 -45 17 -1133 14 -1172 -3z m-37 -473 c-10 -2 -26 -2
-35 0 -10 3 -2 5 17 5 19 0 27 -2 18 -5z"/>
<path d="M1562 2823 c-18 -9 -45 -32 -60 -51 l-27 -35 -3 -281 c-2 -197 1
-288 9 -308 16 -39 71 -85 116 -97 51 -15 845 -15 896 0 45 12 100 58 116 97
8 20 11 111 9 308 l-3 281 -27 35 c-53 69 -45 68 -545 68 -394 0 -452 -2 -481
-17z m943 -98 l25 -24 0 -254 c0 -242 -1 -256 -21 -281 l-20 -26 -444 0 -444
0 -20 26 c-20 25 -21 39 -21 281 l0 254 25 24 24 25 436 0 436 0 24 -25z"/>
<path d="M2332 100 c0 -40 2 -47 7 -26 9 42 29 44 34 4 l5 -33 -2 35 c-1 24
-6 35 -16 35 -8 0 -18 9 -22 20 -3 11 -6 -4 -6 -35z"/>
<path d="M2933 100 c0 -30 1 -47 4 -37 5 18 5 18 25 0 21 -18 21 -18 9 5 -10
19 -10 27 1 40 10 13 8 13 -9 -1 -21 -19 -22 -19 -26 15 -2 20 -4 11 -4 -22z"/>
<path d="M3372 117 l-22 -32 25 -3 c15 -2 25 -10 26 -20 0 -15 1 -15 8 1 8 21
2 87 -8 87 -3 0 -16 -15 -29 -33z m28 -7 c0 -11 -7 -20 -15 -20 -13 0 -14 4
-5 20 6 11 13 20 15 20 3 0 5 -9 5 -20z"/>
<path d="M3447 143 c-12 -21 -6 -84 9 -90 26 -10 44 18 35 57 -6 32 -33 52
-44 33z m33 -19 c0 -9 -5 -14 -12 -12 -18 6 -21 28 -4 28 9 0 16 -7 16 -16z
m5 -44 c0 -8 -8 -16 -17 -18 -13 -2 -18 3 -18 18 0 15 5 20 18 18 9 -2 17 -10
17 -18z"/>
<path d="M3529 133 c-12 -15 -12 -16 4 -10 14 5 17 1 17 -27 0 -19 -6 -37 -12
-39 -7 -3 1 -5 17 -5 17 0 24 2 18 5 -8 3 -13 23 -13 49 0 47 -9 55 -31 27z"/>
<path d="M3607 143 c-12 -21 -6 -84 9 -90 26 -10 44 18 35 57 -6 32 -33 52
-44 33z m33 -19 c0 -9 -5 -14 -12 -12 -18 6 -21 28 -4 28 9 0 16 -7 16 -16z
m5 -44 c0 -8 -8 -16 -17 -18 -13 -2 -18 3 -18 18 0 15 5 20 18 18 9 -2 17 -10
17 -18z"/>
<path d="M3689 133 c-12 -15 -12 -16 4 -10 14 5 17 1 17 -27 0 -19 -6 -37 -12
-39 -7 -3 1 -5 17 -5 17 0 24 2 18 5 -8 3 -13 23 -13 49 0 47 -9 55 -31 27z"/>
<path d="M3767 143 c-12 -21 -6 -84 9 -90 26 -10 44 18 35 57 -6 32 -33 52
-44 33z m33 -18 c0 -8 -7 -15 -15 -15 -8 0 -15 7 -15 15 0 8 7 15 15 15 8 0
15 -7 15 -15z m5 -45 c0 -8 -8 -16 -17 -18 -13 -2 -18 3 -18 18 0 15 5 20 18
18 9 -2 17 -10 17 -18z"/>
<path d="M3847 143 c-4 -3 -7 -11 -7 -17 0 -6 5 -5 12 2 17 17 28 15 28 -6 0
-11 -9 -27 -20 -37 -28 -26 -25 -35 13 -34 29 1 30 2 7 8 -18 5 -21 9 -12 15
20 12 31 49 20 64 -11 13 -31 16 -41 5z"/>
<path d="M3927 144 c-4 -4 -7 -12 -7 -18 0 -6 5 -5 12 2 16 16 28 15 28 -3 0
-8 -5 -15 -12 -15 -6 0 -4 -6 7 -13 10 -8 15 -19 11 -25 -10 -16 -33 -15 -39
1 -4 9 -6 9 -6 -1 -1 -19 29 -27 44 -11 10 10 12 25 6 49 -6 33 -28 49 -44 34z"/>
<path d="M4006 138 c-3 -7 -4 -29 -3 -48 2 -27 7 -36 23 -38 26 -4 34 14 25
59 -7 34 -37 53 -45 27z m34 -14 c0 -9 -5 -14 -12 -12 -18 6 -21 28 -4 28 9 0
16 -7 16 -16z m5 -44 c0 -8 -8 -16 -17 -18 -13 -2 -18 3 -18 18 0 15 5 20 18
18 9 -2 17 -10 17 -18z"/>
<path d="M1943 85 c12 -40 22 -44 31 -12 l7 22 11 -25 10 -25 16 35 15 35 10
-32 c10 -34 27 -45 27 -18 0 8 -4 15 -10 15 -5 0 -10 9 -10 20 0 30 -29 24
-37 -7 l-6 -28 -13 30 c-13 29 -14 29 -20 8 -8 -28 -24 -30 -24 -3 0 11 -4 20
-9 20 -5 0 -4 -15 2 -35z"/>
<path d="M2075 110 c-4 -7 -3 -15 2 -19 5 -3 13 -15 17 -26 8 -18 10 -16 24
15 l15 35 10 -32 c12 -39 22 -42 31 -10 l7 22 10 -25 c8 -20 12 -22 18 -10 17
30 24 63 12 56 -6 -4 -11 -17 -12 -29 -1 -19 -2 -18 -14 8 -14 29 -15 29 -21
8 -8 -28 -24 -30 -24 -3 0 30 -29 24 -37 -7 l-6 -28 -12 29 c-8 20 -15 25 -20
16z"/>
<path d="M2274 108 c-4 -6 0 -16 9 -23 22 -16 21 -22 0 -28 -16 -4 -16 -5 -1
-6 26 -2 33 20 12 36 -16 12 -17 15 -4 23 9 6 10 10 3 10 -6 0 -15 -5 -19 -12z"/>
<path d="M2404 91 c0 -21 7 -36 16 -38 10 -3 11 -2 3 4 -6 4 -13 22 -16 38 -4
27 -5 27 -3 -4z"/>
<path d="M2443 85 c0 -22 2 -30 4 -17 2 12 2 30 0 40 -3 9 -5 -1 -4 -23z"/>
<path d="M2469 88 c4 -17 13 -34 20 -36 10 -3 11 0 5 9 -13 22 -14 43 -1 51 8
5 4 8 -9 8 -19 0 -21 -4 -15 -32z"/>
<path d="M2519 88 c4 -17 13 -34 21 -36 12 -4 13 -2 3 9 -7 7 -13 21 -13 30 0
10 6 20 13 22 6 3 2 6 -9 6 -19 1 -21 -3 -15 -31z"/>
<path d="M2574 106 c-11 -28 0 -51 26 -53 22 -1 22 -1 3 4 -29 6 -30 23 -2 23
14 0 19 5 17 17 -4 23 -36 29 -44 9z m36 -6 c0 -5 -7 -10 -15 -10 -8 0 -15 5
-15 10 0 6 7 10 15 10 8 0 15 -4 15 -10z"/>
<path d="M2641 81 c1 -28 3 -30 6 -11 3 14 9 30 14 36 5 7 3 11 -6 11 -11 0
-15 -11 -14 -36z"/>
<path d="M2694 108 c-4 -6 0 -16 9 -23 22 -16 21 -22 0 -28 -16 -4 -16 -5 -1
-6 26 -2 33 20 12 36 -16 12 -17 15 -4 23 9 6 10 10 3 10 -6 0 -15 -5 -19 -12z"/>
<path d="M2749 88 c4 -17 13 -34 21 -36 12 -4 13 -2 3 9 -7 7 -13 21 -13 30 0
10 6 20 13 22 6 3 2 6 -9 6 -19 1 -21 -3 -15 -31z"/>
<path d="M2807 114 c-13 -13 -7 -55 9 -61 24 -9 51 23 38 45 -12 19 -36 27
-47 16z m36 -16 c6 -19 -3 -38 -19 -38 -8 0 -14 10 -14 25 0 26 25 35 33 13z"/>
<path d="M2874 106 c-9 -23 0 -51 16 -52 9 0 10 1 3 3 -20 7 -16 51 5 56 16 4
16 5 -1 6 -10 0 -20 -5 -23 -13z"/>
<path d="M3034 106 c-9 -23 0 -51 16 -52 9 0 10 1 3 3 -20 7 -16 51 5 56 16 4
16 5 -1 6 -10 0 -20 -5 -23 -13z"/>
<path d="M3097 114 c-13 -13 -7 -55 9 -61 24 -9 51 23 38 45 -12 19 -36 27
-47 16z m38 -29 c0 -11 -8 -21 -17 -23 -14 -3 -18 3 -18 23 0 20 4 26 18 23 9
-2 17 -12 17 -23z"/>
<path d="M3163 85 c0 -22 2 -30 4 -17 2 12 2 30 0 40 -3 9 -5 -1 -4 -23z"/>
<path d="M3187 112 c6 -4 13 -21 16 -37 l4 -30 2 33 c1 41 23 39 33 -4 6 -27
6 -27 5 6 -2 32 -4 35 -36 37 -19 1 -30 -2 -24 -5z"/>
</g>
</svg>
